<?xml version="1.0" encoding="utf-8"?>
<!-- Generator: Adobe Illustrator 24.2.1, SVG Export Plug-In . SVG Version: 6.00 Build 0)  -->
<svg version="1.1" id="Layer_1" xmlns="http://www.w3.org/2000/svg" xmlns:xlink="http://www.w3.org/1999/xlink" x="0px" y="0px"
	 viewBox="0 0 138.5 35.1" style="enable-background:new 0 0 138.5 35.1;" xml:space="preserve">
<style type="text/css">
	.st0{fill:#FFFFFF;}
	.st1{fill:#ED1C24;}
</style>
<g>
	<path d="M118.8,10.3c0-4.8,4-8.7,9-8.7c5,0,9,3.9,9,8.7c0,4.8-4,8.7-9,8.7C122.9,19,118.8,15.1,118.8,10.3"/>
	<path class="st0" d="M120.4,10.3c0-3.9,3.3-7.1,7.3-7.1c4,0,7.3,3.2,7.3,7.1c0,3.9-3.3,7.1-7.3,7.1
		C123.7,17.4,120.4,14.2,120.4,10.3"/>
	<path d="M122,10.2c0-3,2.6-5.5,5.8-5.5c3.2,0,5.8,2.5,5.8,5.5c0,3-2.6,5.5-5.8,5.5C124.6,15.7,122,13.2,122,10.2"/>
	<path class="st0" d="M123.5,10.2c0-2.1,1.9-3.9,4.3-3.9c2.4,0,4.3,1.7,4.3,3.9c0,2.1-1.9,3.9-4.3,3.9
		C125.4,14.1,123.5,12.3,123.5,10.2"/>
	<polygon points="43.4,1.7 37.4,18.8 42.6,18.8 43.3,16.7 48.9,16.7 49.6,18.8 54.8,18.8 48.8,1.7 	"/>
	<polygon class="st0" points="44.5,3.3 47.7,3.3 52.3,16.7 50.6,16.7 50.1,15.2 42.1,15.2 41.5,16.7 39.9,16.7 	"/>
	<polygon points="45.6,4.9 46.6,4.9 49.6,13.6 42.6,13.6 	"/>
	<polygon class="st0" points="46.1,8.6 44.9,12 47.3,12 	"/>
	<polygon points="56,1.6 56,18.8 68.8,18.8 68.8,14 60.9,14 60.9,1.6 	"/>
	<polygon class="st0" points="57.7,3.3 59.2,3.3 59.2,15.6 67.1,15.6 67.1,17.2 57.8,17.2 	"/>
	<polygon points="75.1,1.7 69.1,18.8 74.2,18.8 75,16.7 80.6,16.7 81.3,18.8 86.4,18.8 80.5,1.7 	"/>
	<polygon class="st0" points="76.2,3.3 79.4,3.3 83.9,16.7 82.3,16.7 81.8,15.2 73.7,15.2 73.2,16.7 71.5,16.7 	"/>
	<polygon points="77.3,4.9 78.2,4.9 81.2,13.6 74.3,13.6 	"/>
	<polygon class="st0" points="77.7,8.6 76.6,12 78.9,12 	"/>
	<path d="M87.9,1.7v17h4.8v-5.9h0.9l3.7,6h5.5L99,12.3c0,0,2.8-1.3,3.2-3.2c0,0,0.7-2,0.1-3.4c-0.6-1.4-1.5-2.7-2.4-3.1
		c-0.9-0.4-1-0.9-3.6-0.9C94,1.7,87.9,1.7,87.9,1.7"/>
	<path class="st0" d="M89.6,3.4v13.8h1.5v-6h3.6l3.5,6.1h1.8l-3.6-6.1c0,0,1.8,0.1,2.8-0.7c1-0.8,1.5-1.5,1.7-2.5
		c0.1-1-0.3-4.4-3-4.6c-0.1,0-0.1,0-0.2,0C94.8,3.3,89.6,3.4,89.6,3.4"/>
	<path d="M91.1,4.8v4.6h6.2c0,0,2.3,0.1,2.1-2.6c0,0,0.1-1.9-2.2-1.9L91.1,4.8z"/>
	<path class="st0" d="M92.8,6.4h4.1c0,0,0.9-0.1,0.9,0.8c0,0,0.2,0.9-0.9,0.9h-4L92.8,6.4z"/>
	<polygon points="109.2,7 109.2,1.6 104.3,1.6 104.3,18.9 109.3,18.9 109.3,13.3 114.1,18.9 120.4,18.9 112.9,10.1 120.4,1.7 
		114.2,1.6 	"/>
	<polygon class="st0" points="106,3.3 107.5,3.3 107.5,9.3 109.2,9.3 114.8,3.2 116.8,3.2 110.9,10.1 116.9,17.2 114.8,17.2 
		109.4,10.8 107.4,10.8 107.4,17.3 106,17.3 	"/>
	<path d="M1.7,1.6v8.2c5-3,11.3-5.6,16.6-4.5C29.7,7.6,27.6,18,27.6,18c-2.2,9.8-15,12.2-19.3,3.6c-4.5-9.1,4.5-13.7,4.5-13.7
		C2.5,9.9,1.8,21,1.7,23.3V31h29.5V1.6H1.7z"/>
	<path class="st1" d="M17.1,21.2c-2.8,0-5-2.3-4.9-5c0-2.8,2.3-5,5-4.9c2.8,0,5,2.3,4.9,5C22.1,19,19.8,21.2,17.1,21.2z"/>
	<g>
		<path d="M37.9,23.4h2.3v2.7h2.5v-2.7h2.3v7.8h-2.3v-3.2h-2.5v3.2h-2.3V23.4z"/>
		<path d="M46.4,27.3c0-1.3,0.3-2.3,1-3c0.7-0.7,1.6-1.1,2.9-1.1c1.3,0,2.2,0.3,2.9,1c0.7,0.7,1,1.7,1,2.9c0,0.9-0.1,1.7-0.4,2.2
			c-0.3,0.6-0.7,1-1.3,1.4c-0.6,0.3-1.3,0.5-2.1,0.5c-0.8,0-1.6-0.1-2.1-0.4c-0.6-0.3-1-0.7-1.4-1.3C46.5,29,46.4,28.2,46.4,27.3z
			 M48.7,27.3c0,0.8,0.1,1.4,0.4,1.7c0.3,0.3,0.7,0.5,1.2,0.5c0.5,0,0.9-0.2,1.2-0.5c0.3-0.3,0.4-0.9,0.4-1.8c0-0.7-0.1-1.3-0.4-1.6
			c-0.3-0.3-0.7-0.5-1.2-0.5c-0.5,0-0.8,0.2-1.1,0.5C48.8,26,48.7,26.5,48.7,27.3z"/>
		<path d="M55.4,23.4h2.3v5.9h3.6v1.9h-6V23.4z"/>
		<path d="M62.5,23.4h3.5c0.7,0,1.2,0.1,1.7,0.3c0.4,0.2,0.8,0.5,1,0.8c0.3,0.4,0.5,0.8,0.6,1.3c0.1,0.5,0.2,1,0.2,1.5
			c0,0.8-0.1,1.5-0.3,1.9c-0.2,0.5-0.4,0.8-0.8,1.2c-0.3,0.3-0.7,0.5-1,0.6c-0.5,0.1-1,0.2-1.4,0.2h-3.5V23.4z M64.8,25.2v4.3h0.6
			c0.5,0,0.8-0.1,1-0.2c0.2-0.1,0.4-0.3,0.5-0.6c0.1-0.3,0.2-0.7,0.2-1.4c0-0.8-0.1-1.4-0.4-1.7c-0.3-0.3-0.7-0.5-1.3-0.5H64.8z"/>
		<path d="M70.7,23.4H73v7.8h-2.3V23.4z M71.1,21.3h1.6v1.6h-1.6V21.3z"/>
		<path d="M74.7,23.4h2.2l2.8,4.3v-4.3h2.2v7.8h-2.2l-2.8-4.3v4.3h-2.2V23.4z"/>
		<path d="M87.3,28.4v-1.6h3.6v3.3c-0.7,0.5-1.3,0.8-1.8,1c-0.5,0.2-1.2,0.3-1.9,0.3c-0.9,0-1.6-0.2-2.2-0.5c-0.6-0.3-1-0.8-1.3-1.4
			c-0.3-0.6-0.5-1.3-0.5-2.1c0-0.9,0.2-1.6,0.5-2.2c0.3-0.6,0.8-1.1,1.5-1.4c0.5-0.3,1.2-0.4,2.1-0.4c0.8,0,1.5,0.1,1.9,0.2
			c0.4,0.2,0.8,0.4,1,0.7c0.3,0.3,0.5,0.7,0.6,1.2l-2.2,0.4c-0.1-0.3-0.2-0.5-0.5-0.7c-0.2-0.2-0.5-0.2-0.8-0.2
			c-0.5,0-0.9,0.2-1.2,0.6c-0.3,0.4-0.5,0.9-0.5,1.7c0,0.8,0.2,1.4,0.5,1.8c0.3,0.4,0.7,0.5,1.3,0.5c0.3,0,0.5,0,0.7-0.1
			c0.2-0.1,0.5-0.2,0.8-0.4v-0.7H87.3z"/>
		<path d="M100.4,29.9h-2.6l-0.4,1.3H95l2.8-7.8h2.5l2.8,7.8h-2.4L100.4,29.9z M99.9,28.2l-0.8-2.8l-0.8,2.8H99.9z"/>
		<path d="M103.8,29h2.2v2.2h-2.2V29z"/>
		<path d="M107,28.6l2.2-0.1c0,0.4,0.1,0.7,0.3,0.9c0.2,0.3,0.6,0.5,1,0.5c0.3,0,0.6-0.1,0.8-0.2c0.2-0.2,0.3-0.3,0.3-0.6
			c0-0.2-0.1-0.4-0.3-0.5c-0.2-0.2-0.6-0.3-1.2-0.5c-1-0.2-1.7-0.6-2.2-0.9c-0.4-0.4-0.7-0.9-0.7-1.5c0-0.4,0.1-0.8,0.3-1.1
			c0.2-0.4,0.6-0.6,1-0.8c0.5-0.2,1.1-0.3,1.9-0.3c1,0,1.7,0.2,2.2,0.6c0.5,0.4,0.8,1,0.9,1.8l-2.2,0.1c-0.1-0.4-0.2-0.6-0.4-0.8
			c-0.2-0.2-0.4-0.2-0.8-0.2c-0.3,0-0.5,0.1-0.6,0.2c-0.1,0.1-0.2,0.3-0.2,0.4c0,0.1,0.1,0.2,0.2,0.3c0.1,0.1,0.4,0.2,0.8,0.3
			c1,0.2,1.7,0.5,2.2,0.7c0.4,0.2,0.8,0.5,1,0.9c0.2,0.3,0.3,0.7,0.3,1.2c0,0.5-0.1,1-0.4,1.4c-0.3,0.4-0.6,0.7-1.1,1
			c-0.5,0.2-1.1,0.3-1.8,0.3c-1.3,0-2.2-0.3-2.7-0.8C107.4,30.1,107.1,29.4,107,28.6z M109.3,32.1l0.2-0.6c0.3-0.1,0.6-0.1,0.9-0.1
			c0.6,0,1,0.1,1.2,0.3c0.2,0.2,0.3,0.4,0.3,0.7c0,0.2-0.1,0.3-0.2,0.5c-0.1,0.2-0.3,0.3-0.5,0.4c-0.3,0.1-0.6,0.2-1,0.2
			c-0.4,0-0.8,0-1.4-0.1v-0.7c0.4,0.1,0.7,0.1,1.1,0.1c0.3,0,0.5,0,0.6-0.1c0.1-0.1,0.2-0.2,0.2-0.3c0-0.1,0-0.2-0.1-0.3
			c-0.1-0.1-0.2-0.1-0.4-0.1C109.9,32,109.6,32,109.3,32.1z"/>
		<path d="M114.9,29h2.2v2.2h-2.2V29z"/>
	</g>
</g>
</svg>
