<?xml version="1.0" encoding="UTF-8" standalone="no"?>
<svg
   xmlns:dc="http://purl.org/dc/elements/1.1/"
   xmlns:cc="http://creativecommons.org/ns#"
   xmlns:rdf="http://www.w3.org/1999/02/22-rdf-syntax-ns#"
   xmlns:svg="http://www.w3.org/2000/svg"
   xmlns="http://www.w3.org/2000/svg"
   xmlns:sodipodi="http://sodipodi.sourceforge.net/DTD/sodipodi-0.dtd"
   xmlns:inkscape="http://www.inkscape.org/namespaces/inkscape"
   width="103.31249"
   height="49.583336"
   viewBox="0 0 27.334763 13.118925"
   version="1.1"
   id="svg16"
   inkscape:version="1.0.1 (c497b03c, 2020-09-10)"
   sodipodi:docname="bim.svg">
  <defs
     id="defs10" />
  <sodipodi:namedview
     id="base"
     pagecolor="#00ffff"
     bordercolor="#666666"
     borderopacity="1.0"
     inkscape:pageopacity="0"
     inkscape:pageshadow="2"
     inkscape:zoom="0.35"
     inkscape:cx="463.08482"
     inkscape:cy="121.93452"
     inkscape:document-units="px"
     inkscape:current-layer="layer1"
     inkscape:document-rotation="0"
     showgrid="false"
     units="px"
     fit-margin-top="0.5"
     lock-margins="true"
     fit-margin-left="0.5"
     fit-margin-right="0.5"
     fit-margin-bottom="0.5"
     inkscape:window-width="1440"
     inkscape:window-height="872"
     inkscape:window-x="0"
     inkscape:window-y="28"
     inkscape:window-maximized="0" />
  <metadata
     id="metadata13">
    <rdf:RDF>
      <cc:Work
         rdf:about="">
        <dc:format>image/svg+xml</dc:format>
        <dc:type
           rdf:resource="http://purl.org/dc/dcmitype/StillImage" />
        <dc:title></dc:title>
      </cc:Work>
    </rdf:RDF>
  </metadata>
  <g
     inkscape:label="Layer 1"
     inkscape:groupmode="layer"
     id="layer1"
     transform="translate(16.691192,-115.90482)">
    <g
       id="g680"
       transform="translate(-153.27112,83.490215)">
      <path
         style="fill:#eb1928;fill-opacity:1;fill-rule:nonzero;stroke:none;stroke-width:0.352778"
         d="m 140.46462,32.546901 h 7.28569 l 1.43729,2.130448 1.45797,-2.130448 H 160.03 c 2.07257,0 3.7524,1.679829 3.7524,3.752399 v 5.349544 c 0,2.072569 -1.67983,3.752398 -3.7524,3.752398 h -19.56538 c -2.07257,0 -3.7524,-1.679829 -3.7524,-3.752398 V 36.2993 c 0,-2.07257 1.67983,-3.752399 3.7524,-3.752399"
         id="path380" />
      <path
         style="fill:#ffffff;fill-opacity:1;fill-rule:nonzero;stroke:none;stroke-width:0.352778"
         d="m 161.04286,42.886322 -0.62011,-7.745952 h -2.31373 l -1.43592,3.63802 -1.44831,-3.63802 h -2.24483 l -0.83785,7.745952 h 2.27377 l 0.38585,-4.39732 1.85759,4.38354 1.99816,-4.39732 0.16261,4.4111 z m -10.75007,0.02756 V 35.16793 h -2.35645 v 7.745953 z m -5.22001,-3.806143 c 0.5581,-0.47129 0.92604,-1.090029 0.89297,-1.780426 -0.0441,-0.954981 -0.55811,-1.697743 -1.45797,-2.038118 -0.49609,-0.194304 -1.35048,-0.283876 -2.26825,-0.27423 -1.06109,0.0096 -1.20578,-0.0083 -2.51354,0.168121 v 7.711502 c 0.74965,0.163986 1.37942,0.165364 2.67339,0.195681 2.40192,0.05512 3.73449,-0.824067 3.76343,-2.244824 0.0152,-0.803397 -0.45751,-1.364258 -1.09003,-1.737706 m -1.30914,-1.508952 c 0,0.453374 -0.36656,0.819932 -0.81993,0.819932 h -0.91226 v -1.638487 h 0.91226 c 0.48507,0 0.81993,0.366558 0.81993,0.818555 m 0.23289,3.015147 c -0.006,0.49196 -0.62287,0.686263 -1.08589,0.660081 h -0.87919 v -1.3491 h 0.91226 c 0.46164,-0.02894 1.02526,0.13367 1.05282,0.689019"
         id="path382" />
    </g>
  </g>
</svg>
