<svg xmlns="http://www.w3.org/2000/svg" height="800" width="1200" viewBox="-7.861935 -2.63115 68.13677 15.7869"><path d="M21.681 0v5.2623L17.2604 0h-3.9992v10.5246h3.9994V5.2623l4.4204 5.2623h3.9995V0zM0 0v10.5246h11.7877v-2.631H3.9994V6.42h6.3149V4.1048H3.9994V2.6313h7.7883V0zm44.959 3.689l1.3383 2.7311H43.648zM42.52 0l-4.016 8.3661-3.383-4.2944L39.573 0h-4.7361L31.153 3.3692V0h-3.9994v10.5246h3.9994V7.701l1.207-1.1039 3.2137 3.9275h6.1043l.7072-1.4735h5.2012l.722 1.4735h4.1045L47.2559 0z" fill="#001e61"/></svg>